<svg width="43" height="68" viewBox="0 0 43 68" fill="none" xmlns="http://www.w3.org/2000/svg">
<mask id="path-1-outside-1_32405_914" maskUnits="userSpaceOnUse" x="-1" y="-1" width="45" height="70" fill="black">
<rect fill="white" x="-1" y="-1" width="45" height="70"/>
<path d="M3.58936 0.501953C6.61995 1.27507 9.89795 1.66162 13.4233 1.66162H42.2759V3.79541C38.0392 11.2482 34.8695 17.5568 32.7666 22.7212C30.6637 27.8547 29.0711 32.7716 27.9888 37.4722C26.9064 42.1727 26.1951 47.6463 25.855 53.8931C25.5457 59.0575 25.252 62.2581 24.9736 63.4951C24.6953 64.7012 24.1232 65.6289 23.2573 66.2783C22.4224 66.9587 21.3245 67.2988 19.9639 67.2988C18.4176 67.2988 17.2116 66.7731 16.3457 65.7217C15.4798 64.6702 15.0469 63.0158 15.0469 60.7583C15.0469 58.7482 15.4025 56.2433 16.1138 53.2437C16.825 50.2131 18.4486 45.6981 20.9844 39.6987C24.3551 31.6584 27.2775 25.3343 29.7515 20.7266L36.1528 8.94434H11.0112C9.15576 8.94434 7.76416 9.59375 6.83643 10.8926C5.93962 12.1914 4.85726 16.0724 3.58936 22.5356H0.249512L3.58936 0.501953Z"/>
</mask>
<path d="M3.58936 0.501953C6.61995 1.27507 9.89795 1.66162 13.4233 1.66162H42.2759V3.79541C38.0392 11.2482 34.8695 17.5568 32.7666 22.7212C30.6637 27.8547 29.0711 32.7716 27.9888 37.4722C26.9064 42.1727 26.1951 47.6463 25.855 53.8931C25.5457 59.0575 25.252 62.2581 24.9736 63.4951C24.6953 64.7012 24.1232 65.6289 23.2573 66.2783C22.4224 66.9587 21.3245 67.2988 19.9639 67.2988C18.4176 67.2988 17.2116 66.7731 16.3457 65.7217C15.4798 64.6702 15.0469 63.0158 15.0469 60.7583C15.0469 58.7482 15.4025 56.2433 16.1138 53.2437C16.825 50.2131 18.4486 45.6981 20.9844 39.6987C24.3551 31.6584 27.2775 25.3343 29.7515 20.7266L36.1528 8.94434H11.0112C9.15576 8.94434 7.76416 9.59375 6.83643 10.8926C5.93962 12.1914 4.85726 16.0724 3.58936 22.5356H0.249512L3.58936 0.501953Z" fill="#E9BC46"/>
<path d="M3.58936 0.501953L3.83654 -0.467014L2.7662 -0.740063L2.60065 0.352087L3.58936 0.501953ZM42.2759 1.66162H43.2759V0.661621H42.2759V1.66162ZM42.2759 3.79541L43.1452 4.28961L43.2759 4.05978V3.79541H42.2759ZM32.7666 22.7212L33.692 23.1003L33.6928 23.0983L32.7666 22.7212ZM25.855 53.8931L26.8532 53.9528L26.8535 53.9474L25.855 53.8931ZM24.9736 63.4951L25.948 63.72L25.9492 63.7146L24.9736 63.4951ZM23.2573 66.2783L22.6573 65.4783L22.6412 65.4904L22.6257 65.5031L23.2573 66.2783ZM16.3457 65.7217L17.1176 65.086L16.3457 65.7217ZM16.1138 53.2437L17.0868 53.4744L17.0873 53.4721L16.1138 53.2437ZM20.9844 39.6987L21.9055 40.0881L21.9066 40.0854L20.9844 39.6987ZM29.7515 20.7266L28.8728 20.2492L28.8704 20.2535L29.7515 20.7266ZM36.1528 8.94434L37.0315 9.42173L37.8342 7.94434H36.1528V8.94434ZM6.83643 10.8926L6.02269 10.3113L6.01806 10.3178L6.01353 10.3244L6.83643 10.8926ZM3.58936 22.5356V23.5356H4.41224L4.57065 22.7281L3.58936 22.5356ZM0.249512 22.5356L-0.739194 22.3858L-0.91349 23.5356H0.249512V22.5356ZM3.34217 1.47092C6.46303 2.26706 9.82497 2.66162 13.4233 2.66162V0.661621C9.97093 0.661621 6.77688 0.283072 3.83654 -0.467014L3.34217 1.47092ZM13.4233 2.66162H42.2759V0.661621H13.4233V2.66162ZM41.2759 1.66162V3.79541H43.2759V1.66162H41.2759ZM41.4065 3.30121C37.1585 10.774 33.9659 17.1242 31.8404 22.3441L33.6928 23.0983C35.773 17.9894 38.92 11.7224 43.1452 4.28961L41.4065 3.30121ZM31.8412 22.3421C29.7208 27.5184 28.1104 32.4873 27.0143 37.2478L28.9633 37.6966C30.0318 33.056 31.6067 28.1909 33.692 23.1003L31.8412 22.3421ZM27.0143 37.2478C25.9159 42.0178 25.1989 47.5505 24.8565 53.8387L26.8535 53.9474C27.1914 47.7421 27.8969 42.3276 28.9633 37.6966L27.0143 37.2478ZM24.8568 53.8333C24.5456 59.0292 24.2545 62.1358 23.998 63.2756L25.9492 63.7146C26.2494 62.3805 26.5458 59.0857 26.8532 53.9528L24.8568 53.8333ZM23.9992 63.2703C23.7659 64.2814 23.3076 64.9906 22.6573 65.4783L23.8573 67.0783C24.9388 66.2672 25.6247 65.1209 25.948 63.72L23.9992 63.2703ZM22.6257 65.5031C22.0119 66.0032 21.1563 66.2988 19.9639 66.2988V68.2988C21.4927 68.2988 22.8329 67.9141 23.889 67.0536L22.6257 65.5031ZM19.9639 66.2988C18.671 66.2988 17.7665 65.8738 17.1176 65.086L15.5738 66.3574C16.6567 67.6724 18.1643 68.2988 19.9639 68.2988V66.2988ZM17.1176 65.086C16.469 64.2983 16.0469 62.9245 16.0469 60.7583H14.0469C14.0469 63.107 14.4907 65.0422 15.5738 66.3574L17.1176 65.086ZM16.0469 60.7583C16.0469 58.8555 16.385 56.434 17.0868 53.4744L15.1407 53.0129C14.42 56.0527 14.0469 58.6409 14.0469 60.7583H16.0469ZM17.0873 53.4721C17.7781 50.5287 19.3733 46.0788 21.9055 40.0881L20.0633 39.3094C17.5238 45.3173 15.8719 49.8974 15.1402 53.0152L17.0873 53.4721ZM21.9066 40.0854C25.272 32.0578 28.1803 25.7669 30.6325 21.1996L28.8704 20.2535C26.3747 24.9017 23.4383 31.2589 20.0621 39.3121L21.9066 40.0854ZM30.6302 21.204L37.0315 9.42173L35.2741 8.46694L28.8728 20.2492L30.6302 21.204ZM36.1528 7.94434H11.0112V9.94434H36.1528V7.94434ZM11.0112 7.94434C8.89292 7.94434 7.17055 8.70434 6.02269 10.3113L7.65016 11.4738C8.35777 10.4832 9.4186 9.94434 11.0112 9.94434V7.94434ZM6.01353 10.3244C5.45814 11.1287 4.92747 12.5773 4.38881 14.5088C3.83765 16.4851 3.24432 19.0998 2.60806 22.3431L4.57065 22.7281C5.2023 19.5083 5.7841 16.9508 6.31529 15.0461C6.85899 13.0966 7.31791 11.9552 7.65932 11.4608L6.01353 10.3244ZM3.58936 21.5356H0.249512V23.5356H3.58936V21.5356ZM1.23822 22.6855L4.57806 0.651819L2.60065 0.352087L-0.739194 22.3858L1.23822 22.6855Z" fill="#996932" mask="url(#path-1-outside-1_32405_914)"/>
</svg>
