<svg width="67" height="67" viewBox="0 0 67 67" fill="none" xmlns="http://www.w3.org/2000/svg">
<g clip-path="url(#clip0_32405_869)">
<rect width="67" height="67" rx="10" fill="#211E27"/>
<g filter="url(#filter0_f_32405_869)">
<circle cx="133" cy="119" r="142" fill="#FFE500"/>
</g>
<g filter="url(#filter1_f_32405_869)">
<circle cx="41.5" cy="4.5" r="83.5" fill="#FC845E"/>
</g>
<path d="M17.875 43V28.2875L14.5 30.35V27.025L17.875 25H20.95V43H17.875ZM26.0869 31.4L26.2619 30.1C26.6452 30.1333 26.9494 30.0708 27.1744 29.9125C27.3994 29.7458 27.5494 29.5167 27.6244 29.225C27.7077 28.925 27.7286 28.5875 27.6869 28.2125H26.0869V25H29.1744V28.3375C29.1744 29.4292 28.9161 30.2542 28.3994 30.8125C27.8827 31.3708 27.1119 31.5667 26.0869 31.4ZM36.027 43.375C34.3603 43.375 33.0061 43 31.9645 42.25C30.9228 41.5 30.2895 40.4458 30.0645 39.0875L33.1395 38.6125C33.2978 39.2792 33.6478 39.8042 34.1895 40.1875C34.7311 40.5708 35.4145 40.7625 36.2395 40.7625C36.9645 40.7625 37.5228 40.6208 37.9145 40.3375C38.3145 40.0458 38.5145 39.65 38.5145 39.15C38.5145 38.8417 38.4395 38.5958 38.2895 38.4125C38.1478 38.2208 37.8311 38.0375 37.3395 37.8625C36.8478 37.6875 36.0936 37.4667 35.077 37.2C33.9436 36.9 33.0436 36.5792 32.377 36.2375C31.7103 35.8875 31.2311 35.475 30.9395 35C30.6478 34.525 30.502 33.95 30.502 33.275C30.502 32.4333 30.7228 31.7 31.1645 31.075C31.6061 30.45 32.2228 29.9708 33.0145 29.6375C33.8061 29.2958 34.7395 29.125 35.8145 29.125C36.8645 29.125 37.7936 29.2875 38.602 29.6125C39.4186 29.9375 40.077 30.4 40.577 31C41.077 31.6 41.3853 32.3042 41.502 33.1125L38.427 33.6625C38.352 33.0875 38.0895 32.6333 37.6395 32.3C37.1978 31.9667 36.6061 31.7792 35.8645 31.7375C35.1561 31.6958 34.5853 31.8042 34.152 32.0625C33.7186 32.3125 33.502 32.6667 33.502 33.125C33.502 33.3833 33.5895 33.6042 33.7645 33.7875C33.9395 33.9708 34.2895 34.1542 34.8145 34.3375C35.3478 34.5208 36.1395 34.7458 37.1895 35.0125C38.2645 35.2875 39.1228 35.6042 39.7645 35.9625C40.4145 36.3125 40.8811 36.7333 41.1645 37.225C41.4561 37.7167 41.602 38.3125 41.602 39.0125C41.602 40.3708 41.1061 41.4375 40.1145 42.2125C39.1311 42.9875 37.7686 43.375 36.027 43.375ZM52.2523 43C51.3607 43.1667 50.4857 43.2375 49.6273 43.2125C48.7773 43.1958 48.0148 43.0417 47.3398 42.75C46.6648 42.45 46.1523 41.9792 45.8023 41.3375C45.494 40.7542 45.3315 40.1583 45.3148 39.55C45.2982 38.9417 45.2898 38.2542 45.2898 37.4875V25.75H48.2898V37.3125C48.2898 37.8542 48.294 38.3292 48.3023 38.7375C48.319 39.1458 48.4065 39.4792 48.5648 39.7375C48.8648 40.2375 49.344 40.5167 50.0023 40.575C50.6607 40.6333 51.4107 40.6 52.2523 40.475V43ZM42.8398 31.8625V29.5H52.2523V31.8625H42.8398Z" fill="white"/>
</g>
<defs>
<filter id="filter0_f_32405_869" x="-209" y="-223" width="684" height="684" filterUnits="userSpaceOnUse" color-interpolation-filters="sRGB">
<feFlood flood-opacity="0" result="BackgroundImageFix"/>
<feBlend mode="normal" in="SourceGraphic" in2="BackgroundImageFix" result="shape"/>
<feGaussianBlur stdDeviation="100" result="effect1_foregroundBlur_32405_869"/>
</filter>
<filter id="filter1_f_32405_869" x="-242" y="-279" width="567" height="567" filterUnits="userSpaceOnUse" color-interpolation-filters="sRGB">
<feFlood flood-opacity="0" result="BackgroundImageFix"/>
<feBlend mode="normal" in="SourceGraphic" in2="BackgroundImageFix" result="shape"/>
<feGaussianBlur stdDeviation="100" result="effect1_foregroundBlur_32405_869"/>
</filter>
<clipPath id="clip0_32405_869">
<rect width="67" height="67" rx="10" fill="white"/>
</clipPath>
</defs>
</svg>
