<svg width="60" height="60" viewBox="0 0 60 60" fill="none" xmlns="http://www.w3.org/2000/svg">
<rect x="0.5" y="0.5" width="59" height="59" rx="14.5" fill="#9579F0" stroke="#CACACA"/>
<path d="M27.4754 20.77C28.27 18.3243 31.73 18.3243 32.5246 20.77L33.2208 22.9125C33.5761 24.0062 34.5954 24.7467 35.7454 24.7467H37.9981C40.5696 24.7467 41.6388 28.0373 39.5584 29.5488L37.7359 30.873C36.8055 31.5489 36.4162 32.7471 36.7716 33.8408L37.4677 35.9833C38.2624 38.429 35.4632 40.4627 33.3828 38.9512L31.5603 37.627C30.6299 36.9511 29.3701 36.9511 28.4397 37.627L26.6172 38.9512C24.5368 40.4627 21.7376 38.429 22.5323 35.9833L23.2284 33.8408C23.5838 32.7471 23.1945 31.5489 22.2641 30.873L20.4416 29.5488C18.3612 28.0373 19.4304 24.7467 22.0019 24.7467H24.2546C25.4046 24.7467 26.4239 24.0062 26.7792 22.9125L27.4754 20.77Z" fill="#F8D417"/>
</svg>
