<svg width="54" height="60" viewBox="0 0 54 60" fill="none" xmlns="http://www.w3.org/2000/svg">
<path d="M30 54V57C30 57.85 29.712 58.563 29.136 59.139C28.56 59.715 27.848 60.002 27 60C26.15 60 25.437 59.712 24.861 59.136C24.285 58.56 23.998 57.848 24 57V45C24 44.15 24.288 43.437 24.864 42.861C25.44 42.285 26.152 41.998 27 42C27.85 42 28.563 42.288 29.139 42.864C29.715 43.44 30.002 44.152 30 45V48H51C51.85 48 52.563 48.288 53.139 48.864C53.715 49.44 54.002 50.152 54 51C54 51.85 53.712 52.563 53.136 53.139C52.56 53.715 51.848 54.002 51 54H30ZM3.00001 54C2.15001 54 1.43701 53.712 0.86101 53.136C0.28501 52.56 -0.00198962 51.848 1.03806e-05 51C1.03806e-05 50.15 0.288011 49.437 0.86401 48.861C1.44001 48.285 2.15201 47.998 3.00001 48H15C15.85 48 16.563 48.288 17.139 48.864C17.715 49.44 18.002 50.152 18 51C18 51.85 17.712 52.563 17.136 53.139C16.56 53.715 15.848 54.002 15 54H3.00001ZM19.8 26.775H34.275L36.825 34.125C37.025 34.675 37.375 35.125 37.875 35.475C38.375 35.825 38.925 36 39.525 36C40.525 36 41.325 35.575 41.925 34.725C42.525 33.875 42.625 32.975 42.225 32.025L30.975 1.95C30.725 1.35 30.35 0.875 29.85 0.525C29.35 0.175 28.775 0 28.125 0H25.875C25.225 0 24.65 0.175 24.15 0.525C23.65 0.875 23.275 1.35 23.025 1.95L11.7 32.1C11.35 33.05 11.463 33.938 12.039 34.764C12.615 35.59 13.402 36.002 14.4 36C15.05 36 15.613 35.825 16.089 35.475C16.565 35.125 16.927 34.65 17.175 34.05L19.8 26.775ZM21.6 21.6L26.85 6.675H27.15L32.4 21.6H21.6Z" fill="#11D100"/>
</svg>
