<svg width="24" height="24" viewBox="0 0 24 24" fill="none" xmlns="http://www.w3.org/2000/svg">
<circle cx="12" cy="12" r="12" fill="#9579F0"/>
<path d="M18.7672 7.262C18.9229 7.42289 19.0065 7.63734 18.9996 7.85818C18.9928 8.07902 18.896 8.28817 18.7307 8.43964L9.67386 16.7431C9.48923 16.9123 9.2439 17.0044 8.99034 16.9998C8.73677 16.9953 8.49511 16.8944 8.31705 16.7187L5.25624 13.6968C5.17519 13.6193 5.11079 13.527 5.0668 13.425C5.0228 13.3231 5.0001 13.2137 5 13.1032C4.9999 12.9927 5.02241 12.8832 5.06622 12.7812C5.11003 12.6792 5.17427 12.5867 5.25518 12.5091C5.3361 12.4315 5.43208 12.3703 5.53753 12.3292C5.64299 12.288 5.75581 12.2677 5.86943 12.2693C5.98304 12.271 6.09519 12.2946 6.19932 12.3388C6.30346 12.3831 6.39751 12.447 6.476 12.527L9.02743 15.0456L17.5566 7.22644C17.722 7.07503 17.9424 6.99371 18.1695 7.00038C18.3965 7.00705 18.6115 7.10115 18.7672 7.262Z" fill="white"/>
</svg>
