<svg width="14" height="15" viewBox="0 0 14 15" fill="none" xmlns="http://www.w3.org/2000/svg">
<path d="M5.64694 1.93028C6.10003 0.535818 8.07282 0.535816 8.52591 1.93028L9.10401 3.70947C9.30663 4.3331 9.88778 4.75532 10.5435 4.75532H12.4142C13.8805 4.75532 14.4901 6.63156 13.3039 7.49338L11.7904 8.59299C11.2599 8.97841 11.038 9.66158 11.2406 10.2852L11.8187 12.0644C12.2718 13.4589 10.6758 14.6184 9.48955 13.7566L7.97608 12.657C7.44559 12.2716 6.72726 12.2716 6.19678 12.657L4.6833 13.7566C3.4971 14.6184 1.90108 13.4589 2.35417 12.0644L2.93226 10.2852C3.13489 9.66158 2.91291 8.97841 2.38243 8.59299L0.868954 7.49339C-0.317247 6.63156 0.29238 4.75532 1.75861 4.75532H3.62936C4.28508 4.75532 4.86622 4.3331 5.06884 3.70947L5.64694 1.93028Z" fill="#141127"/>
</svg>
