<svg width="40" height="35" viewBox="0 0 40 35" fill="none" xmlns="http://www.w3.org/2000/svg">
<path opacity="0.91" fill-rule="evenodd" clip-rule="evenodd" d="M39.1723 13.2684C39.1723 13.388 39.1723 13.5075 39.1723 13.627C36.6702 20.7356 34.1965 27.8599 31.751 35C23.6411 35 15.5312 35 7.42132 35C4.9759 27.8599 2.50213 20.7356 0 13.627C0 13.5075 0 13.388 0 13.2684C6.52594 8.84919 13.0546 4.42637 19.5862 0C26.1177 4.42637 32.6464 8.84919 39.1723 13.2684ZM19.2801 1.72131C19.3688 2.47381 19.3815 3.23883 19.3184 4.01639C18.7936 4.23423 18.5386 4.61674 18.5533 5.16393C14.7692 8.1134 11.0075 11.0898 7.2683 14.0932C6.8272 14.0562 6.45741 14.1877 6.15893 14.4877C4.7968 14.1725 3.4324 13.8617 2.06573 13.5553C7.79254 9.59244 13.5307 5.6478 19.2801 1.72131ZM19.8157 1.72131C25.6397 5.66228 31.4543 9.6189 37.2596 13.5912C35.8581 13.8946 34.4554 14.1934 33.0517 14.4877C32.8281 14.3341 32.5986 14.1787 32.3631 14.0215C32.159 13.9976 31.9551 13.9737 31.751 13.9498C28.0475 11.0127 24.3368 8.084 20.619 5.16393C20.6337 4.61674 20.3787 4.23423 19.8539 4.01639C19.8157 3.25174 19.8029 2.48671 19.8157 1.72131ZM19.1271 5.80943C19.2036 5.80943 19.2801 5.80943 19.3566 5.80943C19.3694 7.45916 19.3566 9.10875 19.3184 10.7582C18.7453 10.9961 18.5157 11.4025 18.6298 11.9775C16.9338 13.137 15.238 14.2964 13.542 15.4559C13.3373 15.4535 13.1332 15.4176 12.9299 15.3484C12.6178 15.4111 12.3372 15.5307 12.0883 15.707C10.7394 15.4088 9.38774 15.1219 8.03339 14.8463C7.92383 14.8296 7.88558 14.7818 7.91863 14.7029C11.6919 11.775 15.428 8.81053 19.1271 5.80943ZM19.8157 5.80943C19.8962 5.7987 19.9727 5.81066 20.0452 5.84529C23.7048 8.75 27.3646 11.6547 31.0242 14.5594C31.062 14.6766 31.0747 14.7962 31.0624 14.918C29.7124 15.1658 28.3735 15.4526 27.0457 15.7787C26.6679 15.3823 26.2216 15.2866 25.7068 15.4918C23.9494 14.3219 22.2152 13.1265 20.5043 11.9057C20.631 11.3546 20.4142 10.972 19.8539 10.7582C19.8157 9.10875 19.8029 7.45916 19.8157 5.80943ZM18.8976 12.4078C19.0321 12.4348 19.1596 12.4827 19.2801 12.5512C19.3566 14.1044 19.3821 15.6584 19.3566 17.2131C17.5715 16.8473 15.7862 16.4768 14.001 16.1014C13.9355 16.052 13.8845 15.9923 13.848 15.9221C15.5326 14.7489 17.2158 13.5775 18.8976 12.4078ZM20.1217 12.4078C21.8528 13.5068 23.5615 14.6423 25.2478 15.8145C25.3404 15.8944 25.3404 15.9781 25.2478 16.0656C23.456 16.4948 21.658 16.9012 19.8539 17.2848C19.7902 15.7064 19.803 14.1285 19.8922 12.5512C19.987 12.5195 20.0635 12.4717 20.1217 12.4078ZM1.60667 13.9857C3.00296 14.2977 4.40562 14.5966 5.81464 14.8822C5.90992 15.2277 6.08844 15.5386 6.3502 15.8145C6.46687 15.8869 6.59439 15.9228 6.73274 15.9221C7.6782 20.6405 8.67284 25.3502 9.71657 30.0512C9.26165 30.5023 9.23618 30.9685 9.64007 31.4498C9.22225 32.1018 8.77598 32.7353 8.30117 33.3504C6.04608 26.9009 3.81457 20.446 1.60667 13.9857ZM37.3361 14.0574C37.4166 14.0467 37.4931 14.0586 37.5657 14.0932C35.3349 20.5104 33.1034 26.9294 30.8712 33.3504C29.8893 31.9518 28.9074 30.5533 27.9256 29.1547C28.1384 28.8779 28.1895 28.5791 28.0786 28.2582C29.5271 24.1249 30.968 19.9889 32.4013 15.8504C32.4926 15.6994 32.6202 15.5799 32.7839 15.4918C32.8918 15.3376 32.9556 15.1702 32.9752 14.9898C34.4456 14.7108 35.8992 14.3999 37.3361 14.0574ZM7.88037 15.3484C9.23021 15.6205 10.5819 15.8835 11.9353 16.1373C11.9364 16.6546 12.1914 17.0013 12.7004 17.1773C12.7533 17.2538 12.7915 17.3375 12.8152 17.4283C13.0863 19.9134 13.3158 22.3997 13.5037 24.8873C12.8896 25.2724 12.7748 25.7625 13.1595 26.3576C12.3607 27.5604 11.5318 28.7438 10.6729 29.9078C9.61122 25.1944 8.57836 20.4728 7.57434 15.7428C7.72269 15.6401 7.82467 15.5087 7.88037 15.3484ZM30.8329 15.4201C31.1396 15.3617 31.3437 15.4693 31.445 15.7428C30.0825 19.694 28.7054 23.6386 27.3135 27.5768C27.117 27.6791 26.9512 27.6671 26.8162 27.541C26.0029 26.3625 25.1995 25.1791 24.4062 23.9908C24.6351 23.52 24.5841 23.0777 24.2532 22.6639C24.8812 20.85 25.4932 19.0331 26.0894 17.2131C26.4122 17.2505 26.6927 17.1668 26.931 16.9621C27.0802 16.7106 27.2205 16.4595 27.3518 16.209C28.5253 15.9583 29.6856 15.6953 30.8329 15.4201ZM13.848 16.5676C15.6099 16.9387 17.3696 17.3212 19.1271 17.7152C17.5012 20.118 15.8563 22.5088 14.1923 24.8873C14.0993 24.7107 14.0483 24.5194 14.0393 24.3135C13.8108 21.981 13.5686 19.6501 13.3125 17.3207C13.4465 17.1227 13.6123 16.9434 13.8098 16.7828C13.8467 16.7148 13.8594 16.6431 13.848 16.5676ZM25.0183 16.6393C25.1233 16.6281 25.2254 16.64 25.3243 16.6752C25.4115 16.8167 25.5135 16.9482 25.6303 17.0697C24.9979 18.86 24.3731 20.6531 23.7559 22.4488C23.6283 22.4966 23.5009 22.5444 23.3733 22.5922C22.264 20.9785 21.1546 19.3648 20.0452 17.751C21.7149 17.3895 23.3727 17.019 25.0183 16.6393ZM19.5097 18.0738C19.6301 18.1051 19.7194 18.1768 19.7774 18.2889C20.8103 19.7951 21.8432 21.3012 22.876 22.8074C22.7167 22.9976 22.6148 23.2127 22.57 23.4529C19.9789 24.0691 17.3904 24.6906 14.8044 25.3176C14.7 25.2392 14.6744 25.1436 14.7279 25.0307C16.3409 22.7189 17.9348 20.3999 19.5097 18.0738ZM22.57 23.9549C22.754 24.04 22.9326 24.1476 23.1056 24.2777C23.3726 24.3923 23.6404 24.4043 23.9089 24.3135C24.7538 25.527 25.6081 26.7343 26.4719 27.9355C26.2747 28.0952 26.1727 28.2984 26.1659 28.5451C21.1691 29.1545 16.1705 29.7522 11.1702 30.3381C11.1695 30.2084 11.2078 30.0889 11.285 29.9795C12.0501 28.8798 12.8152 27.78 13.5803 26.6803C14.2906 26.7586 14.737 26.4597 14.9191 25.7838C17.4845 25.1946 20.0348 24.585 22.57 23.9549ZM26.6249 29.334C26.8811 29.4828 27.1489 29.5067 27.4283 29.4057C28.4452 30.822 29.4525 32.2445 30.4504 33.6732C23.2075 33.721 15.9648 33.721 8.72197 33.6732C9.1778 33.0457 9.62407 32.4122 10.0609 31.7725C10.5392 31.7576 10.9345 31.5782 11.2467 31.2346C16.3863 30.6175 21.5123 29.984 26.6249 29.334Z" fill="#5AC8FA"/>
</svg>
