<svg width="25" height="21" viewBox="0 0 25 21" fill="none" xmlns="http://www.w3.org/2000/svg">
<g clip-path="url(#clip0_32488_224)">
<path d="M21.7992 19.5H2.29919C1.05419 19.5 0.0491943 18.495 0.0491943 17.25V3.75C0.0491943 2.505 1.05419 1.5 2.29919 1.5H21.7992C23.0442 1.5 24.0492 2.505 24.0492 3.75V17.25C24.0492 18.495 23.0442 19.5 21.7992 19.5ZM2.29919 3C1.87919 3 1.54919 3.33 1.54919 3.75V17.25C1.54919 17.67 1.87919 18 2.29919 18H21.7992C22.2192 18 22.5492 17.67 22.5492 17.25V3.75C22.5492 3.33 22.2192 3 21.7992 3H2.29919Z" fill="#626262"/>
<path d="M12.0492 13.4399C10.9992 13.4399 10.0392 13.0199 9.3192 12.2549L1.4442 3.88493C1.1592 3.58493 1.1742 3.10493 1.4742 2.81993C1.7742 2.53493 2.2542 2.54993 2.5392 2.84993L10.4142 11.2199C11.2692 12.1349 12.8292 12.1349 13.6842 11.2199L21.5592 2.86493C21.8442 2.56493 22.3242 2.54993 22.6242 2.83493C22.9242 3.11993 22.9392 3.59993 22.6542 3.89993L14.7792 12.2699C14.0592 13.0349 13.0992 13.4549 12.0492 13.4549V13.4399Z" fill="#626262"/>
</g>
<defs>
<clipPath id="clip0_32488_224">
<rect width="24" height="21" fill="white" transform="translate(0.0491943)"/>
</clipPath>
</defs>
</svg>
