<svg width="23" height="21" viewBox="0 0 23 21" fill="none" xmlns="http://www.w3.org/2000/svg">
<path d="M11.2844 0C5.33627 0 0.518556 4.81772 0.518556 10.7658C0.51726 13.0258 1.22759 15.2287 2.54879 17.0622C3.86999 18.8957 5.73497 20.2666 7.87917 20.9805C8.41746 21.0741 8.61986 20.7512 8.61986 20.468C8.61986 20.2129 8.60586 19.3656 8.60586 18.4634C5.90148 18.9619 5.2017 17.8046 4.98638 17.1984C4.86473 16.8884 4.34043 15.9335 3.88288 15.6772C3.50608 15.4759 2.96779 14.9774 3.86889 14.9645C4.71724 14.9505 5.32228 15.7451 5.52468 16.068C6.4936 17.6958 8.04065 17.2383 8.65969 16.9562C8.75443 16.2564 9.0365 15.786 9.34655 15.5168C6.95115 15.2477 4.44809 14.3186 4.44809 10.2006C4.44809 9.02932 4.86473 8.06147 5.55159 7.30786C5.44393 7.03871 5.06713 5.93521 5.65925 4.45491C5.65925 4.45491 6.56035 4.17177 8.61986 5.55733C9.49632 5.31445 10.4018 5.19239 11.3113 5.19452C12.2264 5.19452 13.1415 5.3151 14.0028 5.55733C16.0623 4.15777 16.9634 4.45491 16.9634 4.45491C17.5555 5.93521 17.1787 7.03871 17.071 7.30786C17.7568 8.06147 18.1745 9.0164 18.1745 10.2006C18.1745 14.3326 15.6586 15.2477 13.2632 15.5168C13.6529 15.8527 13.9899 16.4987 13.9899 17.5085C13.9899 18.9479 13.9759 20.1052 13.9759 20.4691C13.9759 20.7512 14.1783 21.0871 14.7166 20.9794C16.8534 20.2577 18.7102 18.8841 20.0255 17.0519C21.3409 15.2198 22.0486 13.0213 22.0492 10.7658C22.0492 4.81772 17.2315 0 11.2833 0" fill="#626262"/>
</svg>
