<svg width="24" height="21" viewBox="0 0 24 21" fill="none" xmlns="http://www.w3.org/2000/svg">
<path d="M23.6906 0.182404C23.5873 0.0931316 23.4615 0.0337761 23.3269 0.0107429C23.1923 -0.0122903 23.0539 0.0018732 22.9268 0.0517051L1.21572 8.54822C0.951646 8.65155 0.728223 8.83777 0.579004 9.0789C0.429786 9.32004 0.362827 9.60308 0.388185 9.88551C0.413542 10.1679 0.529847 10.4345 0.719632 10.6452C0.909417 10.8559 1.16244 10.9994 1.44069 11.054L7.2386 12.1928V18.641C7.23872 18.9399 7.32817 19.232 7.49546 19.4797C7.66276 19.7275 7.90027 19.9196 8.17752 20.0314C8.45476 20.1432 8.75909 20.1696 9.05145 20.1072C9.3438 20.0448 9.61084 19.8965 9.8183 19.6812L12.6723 16.7212L17.1267 20.6261C17.3987 20.8667 17.7492 20.9997 18.1123 21C18.2709 20.9996 18.4285 20.9747 18.5794 20.9261C18.8269 20.8478 19.0495 20.706 19.2251 20.5148C19.4006 20.3236 19.523 20.0898 19.58 19.8366L23.9317 0.918391C23.9623 0.785392 23.956 0.646567 23.9135 0.516874C23.871 0.38718 23.794 0.271537 23.6906 0.182404ZM1.67317 9.7888C1.66907 9.77774 1.66907 9.76557 1.67317 9.75451C1.67801 9.75078 1.68344 9.74788 1.68924 9.74594L18.799 3.04814L7.73247 10.9758L1.68924 9.79308L1.67317 9.7888ZM8.89269 18.7878C8.86316 18.8184 8.82518 18.8395 8.78359 18.8485C8.74199 18.8575 8.69867 18.8539 8.65914 18.8381C8.61961 18.8224 8.58566 18.7952 8.56162 18.7601C8.53758 18.725 8.52454 18.6835 8.52416 18.641V13.082L11.7049 15.8674L8.89269 18.7878ZM18.3277 19.5462C18.3198 19.5825 18.3023 19.6159 18.277 19.643C18.2518 19.6702 18.2197 19.69 18.1841 19.7005C18.1478 19.7132 18.1088 19.716 18.0711 19.7084C18.0334 19.7009 17.9984 19.6834 17.9699 19.6577L8.91412 11.7139L22.344 2.08933L18.3277 19.5462Z" fill="#626262"/>
</svg>
